REM DIRINDEX 1\5,1\2\6,1\2\7,1\3\8,1\3\9,1\4\10,1\4\11,1\4\12
REM DIRNAME folder01,folder02,folder03,folder04,folder05,folder06,folder07,folder08,folder09,folder10,folder11,folder12
TITLE ""
FILE "EJE_DB3000_5th_4B_44.mp3" MP3
  TRACK 01 AUDIO
    TITLE "0:"
    INDEX 01 00:00:00
  TRACK 02 AUDIO
    TITLE "10:cjc026_09882"
    INDEX 01 00:00:05
  TRACK 03 AUDIO
    TITLE "0:"
    INDEX 01 00:00:68
  TRACK 04 AUDIO
    TITLE "11:cjc026_09883"
    INDEX 01 00:01:21
  TRACK 05 AUDIO
    TITLE "0:"
    INDEX 01 00:02:34
  TRACK 06 AUDIO
    TITLE "12:cjc026_09884"
    INDEX 01 00:02:59
  TRACK 07 AUDIO
    TITLE "0:"
    INDEX 01 00:03:47
  TRACK 08 AUDIO
    TITLE "10:cjc026_09885"
    INDEX 01 00:03:74
  TRACK 09 AUDIO
    TITLE "0:"
    INDEX 01 00:04:70
  TRACK 10 AUDIO
    TITLE "11:cjc026_09886"
    INDEX 01 00:05:18
  TRACK 11 AUDIO
    TITLE "0:"
    INDEX 01 00:06:30
  TRACK 12 AUDIO
    TITLE "12:cjc026_09887"
    INDEX 01 00:06:55
  TRACK 13 AUDIO
    TITLE "0:"
    INDEX 01 00:07:52
  TRACK 14 AUDIO
    TITLE "10:cjc026_09888"
    INDEX 01 00:08:03
  TRACK 15 AUDIO
    TITLE "0:"
    INDEX 01 00:08:70
  TRACK 16 AUDIO
    TITLE "11:cjc026_09889"
    INDEX 01 00:09:22
  TRACK 17 AUDIO
    TITLE "0:"
    INDEX 01 00:10:35
  TRACK 18 AUDIO
    TITLE "12:cjc026_09890"
    INDEX 01 00:10:65
  TRACK 19 AUDIO
    TITLE "0:"
    INDEX 01 00:11:58
  TRACK 20 AUDIO
    TITLE "10:cjc026_09891"
    INDEX 01 00:12:11
  TRACK 21 AUDIO
    TITLE "0:"
    INDEX 01 00:13:08
  TRACK 22 AUDIO
    TITLE "11:cjc026_09892"
    INDEX 01 00:13:35
  TRACK 23 AUDIO
    TITLE "0:"
    INDEX 01 00:14:49
  TRACK 24 AUDIO
    TITLE "12:cjc026_09893"
    INDEX 01 00:15:01
  TRACK 25 AUDIO
    TITLE "0:"
    INDEX 01 00:15:74
  TRACK 26 AUDIO
    TITLE "10:cjc026_09894"
    INDEX 01 00:16:24
  TRACK 27 AUDIO
    TITLE "0:"
    INDEX 01 00:17:18
  TRACK 28 AUDIO
    TITLE "11:cjc026_09895"
    INDEX 01 00:17:41
  TRACK 29 AUDIO
    TITLE "0:"
    INDEX 01 00:18:37
  TRACK 30 AUDIO
    TITLE "12:cjc026_09896"
    INDEX 01 00:18:62
  TRACK 31 AUDIO
    TITLE "0:"
    INDEX 01 00:19:54
  TRACK 32 AUDIO
    TITLE "10:cjc026_09897"
    INDEX 01 00:20:06
  TRACK 33 AUDIO
    TITLE "0:"
    INDEX 01 00:20:71
  TRACK 34 AUDIO
    TITLE "11:cjc026_09898"
    INDEX 01 00:21:21
  TRACK 35 AUDIO
    TITLE "0:"
    INDEX 01 00:22:32
  TRACK 36 AUDIO
    TITLE "12:cjc026_09899"
    INDEX 01 00:22:58
  TRACK 37 AUDIO
    TITLE "0:"
    INDEX 01 00:23:48
  TRACK 38 AUDIO
    TITLE "10:cjc026_09900"
    INDEX 01 00:24:00
  TRACK 39 AUDIO
    TITLE "0:"
    INDEX 01 00:24:71
  TRACK 40 AUDIO
    TITLE "11:cjc026_09901"
    INDEX 01 00:25:23
  TRACK 41 AUDIO
    TITLE "0:"
    INDEX 01 00:26:38
  TRACK 42 AUDIO
    TITLE "12:cjc026_09902"
    INDEX 01 00:26:64
  TRACK 43 AUDIO
    TITLE "0:"
    INDEX 01 00:27:59
  TRACK 44 AUDIO
    TITLE "10:cjc026_09903"
    INDEX 01 00:28:10
  TRACK 45 AUDIO
    TITLE "0:"
    INDEX 01 00:29:03
  TRACK 46 AUDIO
    TITLE "11:cjc026_09904"
    INDEX 01 00:29:29
  TRACK 47 AUDIO
    TITLE "0:"
    INDEX 01 00:30:30
  TRACK 48 AUDIO
    TITLE "12:cjc026_09905"
    INDEX 01 00:30:55
  TRACK 49 AUDIO
    TITLE "0:"
    INDEX 01 00:31:47
  TRACK 50 AUDIO
    TITLE "10:cjc026_09906"
    INDEX 01 00:32:00
  TRACK 51 AUDIO
    TITLE "0:"
    INDEX 01 00:32:74
  TRACK 52 AUDIO
    TITLE "11:cjc026_09907"
    INDEX 01 00:33:24
  TRACK 53 AUDIO
    TITLE "0:"
    INDEX 01 00:34:30
  TRACK 54 AUDIO
    TITLE "12:cjc026_09908"
    INDEX 01 00:34:55
  TRACK 55 AUDIO
    TITLE "0:"
    INDEX 01 00:35:55
  TRACK 56 AUDIO
    TITLE "10:cjc026_09909"
    INDEX 01 00:36:05
  TRACK 57 AUDIO
    TITLE "0:"
    INDEX 01 00:37:03
  TRACK 58 AUDIO
    TITLE "11:cjc026_09910"
    INDEX 01 00:37:28
  TRACK 59 AUDIO
    TITLE "0:"
    INDEX 01 00:38:16
  TRACK 60 AUDIO
    TITLE "12:cjc026_09911"
    INDEX 01 00:38:41
  TRACK 61 AUDIO
    TITLE "0:"
    INDEX 01 00:39:39
  TRACK 62 AUDIO
    TITLE "10:cjc026_09912"
    INDEX 01 00:39:62
  TRACK 63 AUDIO
    TITLE "0:"
    INDEX 01 00:40:58
  TRACK 64 AUDIO
    TITLE "11:cjc026_09913"
    INDEX 01 00:41:06
  TRACK 65 AUDIO
    TITLE "0:"
    INDEX 01 00:42:04
  TRACK 66 AUDIO
    TITLE "12:cjc026_09914"
    INDEX 01 00:42:29
  TRACK 67 AUDIO
    TITLE "0:"
    INDEX 01 00:43:25
  TRACK 68 AUDIO
    TITLE "10:cjc026_09915"
    INDEX 01 00:43:48
  TRACK 69 AUDIO
    TITLE "0:"
    INDEX 01 00:44:40
  TRACK 70 AUDIO
    TITLE "11:cjc026_09916"
    INDEX 01 00:44:65
  TRACK 71 AUDIO
    TITLE "0:"
    INDEX 01 00:45:63
  TRACK 72 AUDIO
    TITLE "12:cjc026_09917"
    INDEX 01 00:46:13
  TRACK 73 AUDIO
    TITLE "0:"
    INDEX 01 00:47:05
  TRACK 74 AUDIO
    TITLE "10:cjc026_09918"
    INDEX 01 00:47:30
  TRACK 75 AUDIO
    TITLE "0:"
    INDEX 01 00:48:30
  TRACK 76 AUDIO
    TITLE "11:cjc026_09919"
    INDEX 01 00:48:57
  TRACK 77 AUDIO
    TITLE "0:"
    INDEX 01 00:50:11
  TRACK 78 AUDIO
    TITLE "12:cjc026_09920"
    INDEX 01 00:50:35
  TRACK 79 AUDIO
    TITLE "0:"
    INDEX 01 00:51:36
  TRACK 80 AUDIO
    TITLE "10:cjc026_09921"
    INDEX 01 00:51:62
  TRACK 81 AUDIO
    TITLE "0:"
    INDEX 01 00:52:65
  TRACK 82 AUDIO
    TITLE "11:cjc026_09922"
    INDEX 01 00:53:15
  TRACK 83 AUDIO
    TITLE "0:"
    INDEX 01 00:54:36
  TRACK 84 AUDIO
    TITLE "12:cjc026_09923"
    INDEX 01 00:54:62
  TRACK 85 AUDIO
    TITLE "0:"
    INDEX 01 00:55:65
  TRACK 86 AUDIO
    TITLE "10:cjc026_09924"
    INDEX 01 00:56:16
  TRACK 87 AUDIO
    TITLE "0:"
    INDEX 01 00:57:15
  TRACK 88 AUDIO
    TITLE "11:cjc026_09925"
    INDEX 01 00:57:43
  TRACK 89 AUDIO
    TITLE "0:"
    INDEX 01 00:58:67
  TRACK 90 AUDIO
    TITLE "12:cjc026_09926"
    INDEX 01 00:59:20
  TRACK 91 AUDIO
    TITLE "0:"
    INDEX 01 01:00:19
